<?xml version="1.0" standalone="no"?>
<!DOCTYPE svg PUBLIC "-//W3C//DTD SVG 20010904//EN"
 "http://www.w3.org/TR/2001/REC-SVG-20010904/DTD/svg10.dtd">
<svg version="1.0" xmlns="http://www.w3.org/2000/svg"
 width="1534.817421pt" height="1963.826121pt" viewBox="0 0 1534.817421 1963.826121"
 preserveAspectRatio="xMidYMid meet">

<g transform="translate(-231.190825,1991.000000) scale(0.100000,-0.100000)"
fill="#000000" stroke="none">
<path d="M9953 19838 c-127 -161 -234 -254 -423 -370 -198 -120 -342 -182
-710 -303 -331 -108 -457 -185 -711 -432 -91 -89 -145 -134 -165 -138 -98 -19
-126 -25 -194 -40 -41 -9 -111 -26 -155 -37 -44 -11 -96 -24 -115 -28 -19 -4
-62 -15 -95 -25 -33 -9 -78 -21 -100 -26 -64 -13 -213 -63 -305 -102 -285
-119 -508 -274 -670 -466 -82 -97 -127 -180 -203 -371 -80 -202 -114 -248
-227 -305 -117 -59 -267 -87 -594 -110 -120 -9 -185 -47 -235 -137 -35 -64
-49 -146 -55 -333 -8 -224 -19 -284 -56 -320 -36 -35 -100 -43 -153 -22 -39
17 -55 43 -64 107 -9 69 -13 80 -31 80 -16 0 -137 -134 -268 -295 -48 -59
-111 -152 -146 -215 -100 -183 -117 -450 -42 -679 13 -40 11 -78 -5 -91 -14
-11 -133 -164 -170 -218 -76 -113 -85 -138 -86 -237 0 -91 13 -142 64 -258 70
-158 85 -209 107 -362 17 -118 8 -190 -24 -203 -24 -9 -134 54 -190 107 -27
26 -62 67 -78 92 -36 56 -104 194 -104 209 0 22 -53 110 -65 110 -7 0 -15 -10
-18 -22 -3 -13 -13 -48 -22 -78 -9 -30 -20 -80 -25 -110 -5 -30 -16 -91 -25
-135 -42 -215 -54 -348 -55 -583 0 -249 10 -350 56 -539 32 -128 71 -232 136
-353 72 -136 124 -206 295 -399 72 -81 34 -95 -247 -94 -196 1 -317 13 -415
44 -16 5 -60 18 -97 29 -292 85 -551 298 -843 692 -44 60 -85 108 -91 108 -17
0 -27 -139 -19 -257 13 -204 47 -358 127 -573 21 -58 108 -221 151 -285 95
-140 252 -316 367 -410 207 -169 505 -321 800 -409 47 -14 111 -33 142 -42 32
-9 63 -23 69 -30 13 -16 -14 -538 -35 -659 -30 -172 -67 -315 -96 -367 -6 -10
-10 -22 -10 -27 0 -20 -64 -148 -108 -216 -44 -69 -143 -202 -178 -240 -44
-47 -183 -214 -221 -266 -111 -150 -204 -340 -252 -514 -59 -210 -89 -585 -62
-746 5 -30 15 -85 21 -124 36 -225 107 -416 217 -582 56 -83 112 -146 204
-225 63 -54 66 -59 77 -121 7 -35 12 -83 12 -106 0 -125 90 -554 123 -587 4
-4 7 -13 7 -21 0 -22 109 -242 154 -312 100 -154 265 -340 316 -356 33 -11 41
10 33 90 -12 109 -8 442 6 525 23 135 72 300 121 403 40 86 46 67 53 -170 8
-255 32 -463 70 -618 32 -126 77 -277 96 -320 5 -11 17 -40 26 -65 16 -41 33
-84 55 -135 4 -11 20 -46 34 -78 14 -32 26 -60 26 -62 0 -14 231 -484 250
-510 4 -5 22 -37 40 -70 52 -95 292 -452 417 -618 172 -230 349 -430 584 -664
340 -336 584 -548 819 -710 176 -120 437 -283 507 -315 114 -51 119 -40 49 99
-78 156 -115 248 -150 376 -23 83 -46 167 -56 207 -4 19 -14 55 -20 78 -18 70
-53 284 -70 427 -5 44 -16 136 -24 205 -18 143 -20 167 -41 385 -8 88 -19 207
-25 265 -5 58 -17 177 -25 265 -8 88 -19 198 -25 245 -5 47 -15 132 -20 190
-5 58 -13 131 -16 163 -6 48 -4 57 9 57 22 0 74 -67 141 -183 32 -54 126 -201
209 -326 84 -125 162 -245 175 -266 32 -55 112 -218 140 -285 13 -30 29 -68
36 -85 13 -29 18 -41 45 -110 7 -16 21 -56 32 -90 11 -33 24 -69 29 -80 14
-34 59 -180 90 -290 4 -16 27 -102 50 -190 108 -415 118 -450 150 -530 7 -16
16 -39 21 -50 103 -256 171 -343 679 -860 119 -121 274 -283 345 -360 71 -77
152 -165 180 -195 69 -75 279 -312 341 -385 125 -148 229 -282 367 -474 45
-63 87 -116 94 -118 14 -5 22 4 129 142 215 277 609 697 944 1005 68 63 163
151 210 196 47 44 186 172 310 285 385 348 663 637 768 795 83 126 157 327
241 659 55 218 184 634 261 845 17 47 63 180 101 295 75 228 94 279 176 490
58 149 77 190 90 190 28 0 33 -65 44 -636 16 -768 1 -1176 -51 -1429 -60 -291
-146 -512 -285 -733 -87 -139 -85 -169 8 -110 137 89 553 403 627 474 8 8 62
54 120 104 127 109 500 478 636 630 97 108 186 217 393 480 355 451 693 1083
870 1625 81 249 121 531 121 855 0 144 3 175 14 175 37 0 76 -140 107 -380 12
-93 8 -396 -7 -603 -7 -96 -1 -113 38 -104 52 13 267 254 354 397 112 183 188
376 234 600 14 69 40 353 40 442 0 86 7 102 89 212 62 83 151 219 151 231 0 3
11 22 24 43 31 50 94 208 123 312 79 280 76 587 -9 885 -86 304 -207 525 -421
765 -17 19 -91 100 -165 179 -148 160 -201 230 -261 344 -39 76 -101 244 -101
276 0 8 -4 28 -10 45 -21 71 -45 208 -79 456 -6 41 -13 138 -16 215 -8 170 -7
172 90 187 74 11 216 40 275 56 115 32 155 44 245 76 102 37 115 43 245 104
220 104 460 295 608 484 97 124 204 306 267 453 9 22 22 54 29 70 15 35 59
211 76 305 7 36 14 118 17 182 5 108 4 118 -13 125 -14 5 -37 -14 -108 -93
-312 -343 -500 -486 -777 -592 -160 -61 -219 -77 -379 -106 -227 -40 -374 -46
-556 -22 -105 14 -144 28 -144 50 0 7 29 36 65 65 147 120 339 356 437 541 38
70 107 236 118 285 4 17 17 64 28 105 40 144 46 489 13 635 -28 120 -44 185
-56 230 -8 28 -24 85 -35 127 -27 103 -66 221 -96 286 -26 57 -57 71 -67 30
-13 -62 -78 -297 -90 -328 -62 -165 -241 -363 -477 -526 -102 -71 -247 -138
-425 -199 -221 -74 -605 -86 -930 -29 -160 29 -283 77 -392 156 -84 61 -115
118 -138 251 -41 243 -49 287 -71 357 -26 82 -39 125 -53 183 -15 61 -6 60
157 -14 37 -17 81 -37 97 -44 113 -52 294 -108 400 -125 259 -42 341 -50 485
-50 273 0 509 52 715 158 174 89 395 321 395 414 0 13 -55 116 -122 228 -116
193 -192 301 -270 381 -57 60 -221 203 -278 243 -30 22 -74 58 -97 80 -61 57
-60 84 18 332 19 64 31 212 26 329 -10 201 -59 326 -209 534 -75 105 -188 251
-208 271 -3 3 -31 38 -63 77 -52 63 -133 142 -157 151 -4 2 -9 -42 -12 -97 -3
-81 -8 -106 -24 -128 -26 -35 -84 -64 -139 -70 -40 -5 -46 -2 -90 38 -61 56
-149 170 -255 329 -117 177 -236 310 -361 402 -83 61 -329 169 -509 222 -107
31 -156 48 -239 79 -79 30 -86 35 -144 107 -85 105 -123 145 -197 204 -164
131 -322 207 -595 285 -47 14 -326 71 -446 91 -25 5 -66 14 -90 20 -24 6 -60
16 -79 21 -172 44 -299 100 -440 195 -161 108 -396 330 -512 484 -47 62 -188
292 -188 306 0 12 -52 84 -60 84 -5 0 -35 -33 -67 -72z m-5 -311 c3 -40 -3
-59 -33 -113 -93 -166 -222 -288 -565 -534 -317 -227 -477 -396 -570 -603 -86
-193 -77 -505 17 -618 19 -22 33 -29 52 -27 31 4 38 28 40 130 3 185 43 335
124 463 111 177 258 307 653 580 118 82 267 219 318 293 15 23 50 92 76 153
27 61 53 116 59 122 8 8 54 -32 164 -141 206 -205 350 -316 532 -410 114 -58
176 -83 280 -111 22 -6 65 -17 95 -26 77 -20 161 -39 335 -74 356 -72 567
-147 736 -261 33 -23 58 -47 56 -53 -2 -8 -48 -14 -133 -18 -165 -8 -335 -47
-470 -110 -67 -31 -87 -49 -82 -75 5 -28 50 -35 303 -44 398 -14 500 -27 855
-110 409 -95 615 -202 738 -383 42 -61 34 -64 -101 -44 -276 42 -371 49 -542
37 -174 -11 -269 -29 -273 -52 -3 -17 2 -20 88 -38 151 -32 384 -88 420 -100
14 -5 52 -16 85 -26 182 -53 549 -181 608 -211 71 -38 121 -89 115 -120 -3
-19 -20 -23 -158 -45 -58 -9 -112 -9 -245 1 -93 7 -224 17 -290 22 -66 5 -190
12 -276 15 -295 13 -568 -38 -451 -84 27 -11 186 -44 372 -76 52 -9 118 -21
145 -26 64 -11 235 -36 345 -50 236 -29 534 -2 740 67 65 21 229 101 297 144
39 24 48 1 46 -113 -7 -327 -150 -500 -513 -616 -146 -47 -523 -61 -835 -32
-245 23 -503 41 -539 38 -22 -1 -41 -8 -43 -14 -8 -23 134 -79 287 -114 19 -4
91 -22 159 -40 69 -17 145 -35 170 -40 25 -5 100 -18 166 -31 103 -19 155 -22
360 -23 199 0 251 3 305 18 111 30 211 66 251 92 21 13 41 24 45 24 12 0 131
99 176 148 45 48 101 129 125 182 29 63 58 192 71 315 10 98 25 97 95 -7 112
-168 142 -259 141 -433 -2 -317 -151 -601 -423 -803 -93 -69 -275 -161 -386
-195 -90 -28 -128 -35 -267 -53 -131 -17 -147 -17 -330 0 -106 10 -211 21
-233 26 -22 5 -80 16 -130 25 -49 9 -108 20 -130 25 -22 5 -74 16 -115 25 -41
9 -120 27 -175 40 -136 32 -268 60 -425 89 -116 22 -425 40 -557 32 -315 -18
-360 -19 -367 -8 -16 26 175 189 461 396 229 164 269 198 258 216 -9 15 -133
9 -205 -10 -365 -97 -635 -261 -892 -541 -87 -94 -158 -184 -301 -379 -95
-130 -172 -214 -187 -205 -21 13 -3 91 82 349 58 178 124 420 177 651 5 22 17
65 26 95 9 30 20 69 25 85 11 39 57 162 74 200 24 51 86 207 86 216 0 46 -141
-86 -202 -188 -31 -53 -99 -188 -129 -258 -16 -38 -57 -170 -73 -235 -8 -36
-29 -119 -45 -185 -49 -201 -81 -319 -128 -465 -13 -41 -31 -97 -39 -125 -52
-163 -104 -292 -239 -590 -12 -27 -44 -102 -70 -165 -26 -63 -59 -130 -72
-147 -45 -62 -98 -36 -156 74 -58 111 -88 202 -137 418 -5 22 -17 72 -26 110
-8 39 -22 88 -29 110 -7 22 -27 83 -44 135 -24 75 -95 282 -146 425 -4 11 -18
44 -31 73 -13 29 -24 55 -24 57 0 7 -94 196 -130 260 -53 96 -119 190 -235
335 -51 63 -197 207 -268 263 -240 190 -523 330 -837 414 -228 60 -285 67
-575 67 -277 0 -332 -6 -510 -55 -165 -45 -331 -115 -470 -199 -27 -16 -57
-33 -65 -37 -8 -3 -58 -34 -110 -68 -285 -186 -422 -264 -522 -300 -104 -38
-128 -44 -209 -59 -114 -21 -172 -21 -191 2 -46 52 -74 528 -36 599 32 58 48
63 198 63 275 0 495 50 642 147 110 72 152 131 224 315 24 61 44 115 44 120 0
4 18 46 40 93 103 213 250 347 550 502 198 102 368 166 605 228 138 36 239 64
328 92 29 9 52 12 58 6 5 -5 -5 -41 -25 -88 -39 -95 -89 -256 -105 -341 -16
-86 -14 -241 5 -320 47 -202 166 -333 348 -379 89 -22 99 -7 40 59 -55 60
-110 144 -136 206 -11 25 -23 54 -28 65 -39 89 -52 323 -25 430 68 262 289
590 500 740 105 75 270 159 385 198 25 8 56 20 70 25 14 6 59 23 100 37 41 15
89 33 105 39 17 7 46 19 65 26 258 92 485 219 620 346 131 123 143 127 148 51z
m-2208 -2722 c190 -33 301 -63 435 -118 260 -108 530 -317 716 -557 153 -197
286 -413 339 -550 11 -30 25 -64 30 -75 68 -151 137 -465 102 -465 -10 0 -138
133 -232 240 -176 201 -369 368 -582 502 -91 57 -264 144 -343 173 -27 10 -54
21 -60 25 -5 4 -37 15 -70 24 -33 10 -71 21 -85 26 -28 9 -129 33 -208 49 -78
16 -343 14 -432 -3 -243 -47 -425 -110 -418 -144 4 -21 46 -28 231 -42 280
-20 512 -63 652 -120 72 -29 175 -77 205 -95 19 -11 51 -29 72 -40 60 -31 82
-51 75 -69 -5 -13 -23 -16 -109 -16 -57 0 -130 -5 -163 -11 -33 -6 -94 -14
-135 -19 -241 -28 -561 -101 -735 -170 -11 -4 -42 -15 -70 -25 -27 -9 -59 -21
-70 -26 -11 -4 -43 -17 -71 -28 -28 -11 -73 -30 -100 -42 -111 -50 -164 -74
-259 -119 -243 -115 -380 -171 -500 -205 -33 -9 -71 -20 -85 -25 -14 -5 -63
-15 -110 -24 -318 -58 -564 -47 -810 34 -211 70 -459 289 -544 481 -29 67 -56
193 -56 266 0 70 23 160 56 219 40 72 133 200 142 194 4 -3 7 -63 7 -135 1
-123 2 -133 30 -188 56 -112 212 -226 370 -270 123 -33 171 -40 314 -40 224 1
406 47 587 148 105 59 201 112 257 140 75 39 112 69 103 83 -17 28 -127 6
-389 -78 -325 -103 -357 -110 -532 -110 -93 0 -166 5 -207 15 -180 43 -293
116 -344 223 -24 49 -29 72 -32 170 -3 92 -1 117 12 137 9 14 23 25 32 25 8 0
50 -16 92 -36 132 -62 165 -68 382 -68 156 -1 209 3 265 17 208 54 331 114
608 298 65 44 120 79 122 79 2 0 39 22 82 48 97 60 283 155 343 175 25 8 56
20 70 25 85 35 265 79 380 93 46 5 87 12 89 15 12 12 472 3 551 -11z m7190
-1322 c56 -38 199 -166 239 -213 24 -28 41 -57 38 -64 -3 -8 -18 -20 -34 -28
-15 -8 -54 -29 -85 -46 -99 -55 -141 -77 -208 -104 -57 -23 -192 -73 -227 -84
-28 -8 -11 -23 33 -30 62 -9 285 4 359 21 33 8 100 23 149 35 49 12 99 19 111
16 37 -9 165 -212 165 -261 0 -50 -171 -169 -350 -242 -190 -79 -352 -108
-600 -108 -193 0 -295 10 -415 42 -57 15 -90 25 -230 75 -159 56 -402 205
-509 312 -99 99 -220 252 -210 267 8 13 57 8 159 -16 174 -41 406 -54 608 -35
170 16 293 54 502 155 144 69 211 115 344 240 96 90 117 99 161 68z m-6490
-264 c171 -26 354 -86 500 -166 107 -58 268 -181 370 -283 159 -159 244 -286
375 -565 56 -118 88 -160 135 -179 53 -21 82 -20 130 4 46 24 79 63 201 245
175 262 295 393 491 538 238 178 418 269 632 322 269 66 613 60 896 -15 19 -6
75 -19 123 -30 48 -11 98 -25 110 -30 12 -5 56 -21 97 -35 302 -108 582 -296
662 -447 21 -39 23 -55 22 -188 -1 -133 -12 -225 -44 -365 -5 -22 -15 -67 -21
-100 -18 -97 -26 -136 -42 -205 -19 -79 -54 -222 -67 -271 -22 -83 -33 -236
-21 -313 6 -42 15 -84 20 -94 56 -101 171 -404 171 -446 0 -6 11 -38 24 -71
41 -104 73 -187 101 -265 32 -89 104 -265 145 -356 57 -123 101 -236 123 -314
5 -19 13 -154 17 -300 6 -187 13 -280 23 -315 41 -135 66 -203 176 -470 30
-72 43 -147 43 -240 0 -122 -23 -199 -117 -390 -240 -487 -583 -780 -1035
-880 -41 -9 -95 -22 -120 -28 -28 -7 -121 -12 -240 -11 -237 1 -281 9 -507 93
-132 49 -257 114 -351 183 -52 38 -150 116 -162 128 -28 29 -90 69 -95 60 -3
-6 14 -41 39 -78 40 -61 70 -100 179 -236 18 -22 86 -101 153 -176 218 -247
452 -557 539 -715 7 -11 30 -52 52 -91 39 -68 125 -243 156 -314 148 -349 211
-574 267 -968 15 -104 24 -464 12 -481 -24 -34 -50 6 -149 229 -71 161 -247
480 -383 695 -128 202 -337 483 -535 720 -82 99 -181 218 -219 265 -159 195
-366 411 -418 439 -25 13 -32 11 -100 -29 -40 -24 -123 -76 -184 -116 -133
-86 -149 -92 -163 -65 -7 13 -15 235 -22 623 -11 611 -9 801 10 850 6 15 73
89 149 165 76 76 153 159 172 186 18 26 37 47 41 47 10 0 21 -12 62 -71 125
-180 349 -340 607 -434 41 -15 84 -31 95 -35 115 -45 356 -80 538 -80 148 1
267 24 267 52 0 13 -41 29 -133 53 -51 13 -110 30 -133 38 -72 26 -194 87
-194 96 0 5 51 16 113 25 126 19 192 32 256 52 25 8 52 14 60 14 9 0 50 17 91
38 218 110 356 245 490 477 57 98 63 105 100 105 14 0 64 7 112 16 68 12 93
22 119 45 45 40 32 50 -95 65 -108 13 -156 33 -156 63 0 10 39 43 98 81 92 62
182 141 182 161 0 5 23 46 51 92 100 161 112 186 107 232 -7 56 -56 152 -164
321 -50 76 -114 179 -144 227 -75 121 -148 193 -240 240 -211 107 -516 102
-720 -12 -25 -13 -54 -30 -65 -36 -60 -33 -158 -102 -305 -215 -497 -382 -844
-570 -1054 -570 -59 0 -74 4 -103 26 -65 50 -98 158 -90 299 5 91 11 123 42
230 25 84 30 130 16 121 -25 -16 -105 -158 -138 -246 -50 -135 -54 -164 -50
-345 3 -93 8 -187 12 -208 13 -70 -51 -101 -121 -58 -151 92 -227 413 -159
675 40 155 31 189 -30 109 -100 -130 -132 -296 -120 -626 5 -158 4 -211 -5
-222 -18 -21 -160 -21 -202 1 l-30 16 6 86 c18 256 18 309 2 421 -9 63 -21
130 -27 150 -47 147 -59 177 -90 209 -12 13 -25 20 -29 15 -5 -4 -4 -51 2
-103 5 -52 7 -167 4 -255 -7 -216 -33 -305 -108 -369 -53 -46 -96 -49 -130 -8
-24 29 -57 102 -103 232 -65 181 -198 470 -217 470 -25 0 -21 -41 22 -250 20
-97 29 -287 15 -329 -9 -31 -93 -29 -187 5 -80 29 -276 122 -378 180 -96 54
-399 256 -525 349 -221 163 -388 258 -510 292 -22 6 -58 17 -80 23 -22 6 -99
14 -172 17 -169 7 -240 -12 -335 -88 -81 -65 -122 -116 -266 -326 -64 -95
-147 -217 -184 -270 -76 -111 -81 -134 -47 -223 11 -30 51 -118 89 -196 81
-166 92 -178 264 -259 122 -57 137 -73 99 -108 -18 -15 -141 -37 -213 -37 -66
0 -65 -37 3 -65 76 -31 86 -34 139 -41 29 -3 64 -13 78 -22 26 -17 59 -52 60
-65 0 -4 25 -49 57 -100 160 -261 334 -390 607 -447 50 -11 123 -20 161 -21
108 -1 300 -23 300 -34 0 -22 -279 -183 -387 -224 -59 -22 -29 -44 80 -61 120
-18 307 1 539 56 310 73 570 240 753 484 67 89 87 109 108 110 7 0 53 -38 103
-85 77 -72 96 -85 125 -85 28 0 37 6 51 33 15 27 19 68 23 278 5 263 4 257 60
305 14 12 39 34 55 48 74 66 67 64 357 72 239 6 270 5 292 -9 25 -17 25 -17
29 -199 2 -101 9 -298 15 -438 6 -140 16 -664 22 -1165 11 -1007 18 -1135 64
-1135 16 0 74 68 166 194 126 172 186 240 255 293 38 29 80 53 92 53 55 0 162
-200 198 -372 20 -99 18 -154 -8 -208 -34 -70 -88 -97 -258 -134 -111 -24
-183 -71 -339 -221 -154 -149 -209 -192 -306 -237 -63 -30 -77 -33 -169 -33
-116 0 -200 23 -307 83 -75 42 -121 83 -226 199 -40 45 -91 93 -112 108 -38
26 -161 65 -207 65 -60 0 -227 52 -284 89 -67 43 -79 61 -85 132 -12 128 57
303 166 421 l58 63 58 -1 c99 0 169 -63 229 -204 45 -107 94 -152 122 -114 16
22 17 143 2 216 -16 74 -45 98 -253 202 -197 99 -197 99 -276 41 -160 -118
-575 -645 -730 -930 -18 -33 -43 -76 -56 -96 -20 -32 -141 -278 -194 -394 -60
-132 -82 -181 -106 -237 -14 -35 -35 -83 -46 -108 -10 -25 -23 -54 -27 -65 -5
-11 -17 -40 -29 -65 -22 -48 -59 -132 -72 -165 -5 -11 -23 -51 -39 -88 -17
-38 -31 -74 -31 -81 0 -6 -4 -16 -9 -21 -12 -13 -88 -240 -96 -287 -8 -48 -32
-51 -39 -5 -3 17 -12 76 -21 129 -14 82 -16 155 -12 470 3 237 11 424 20 513
9 77 19 165 22 195 11 100 42 279 72 410 44 195 115 360 276 640 98 172 175
277 334 458 100 113 131 157 121 168 -4 3 -44 -13 -91 -35 -109 -52 -174 -75
-267 -94 -189 -38 -355 -46 -555 -26 -389 40 -621 137 -834 349 -210 209 -390
487 -437 675 -11 44 -18 110 -18 180 -1 146 14 213 115 515 105 316 118 399
119 750 0 318 1 325 121 588 17 37 38 83 47 102 8 19 44 95 79 168 35 74 63
135 63 137 0 2 16 39 36 82 20 43 40 89 45 103 8 25 79 225 119 334 12 33 32
81 45 107 22 42 24 56 19 131 -11 149 -32 241 -108 474 -94 284 -92 275 -109
354 -59 254 -46 405 45 558 39 65 212 250 284 303 135 99 337 211 482 266 211
79 352 113 572 137 61 7 372 -4 450 -15z m-4011 -234 c146 -180 310 -282 566
-352 97 -27 107 -28 355 -27 299 0 370 10 667 86 62 15 152 42 200 59 88 30
164 55 278 91 50 15 61 16 73 5 11 -12 4 -28 -46 -103 -98 -146 -155 -255
-194 -374 -45 -133 -68 -224 -78 -310 -29 -236 -41 -291 -79 -365 -32 -61
-210 -243 -304 -309 -137 -97 -389 -212 -552 -251 -38 -9 -90 -22 -115 -28
-28 -7 -132 -12 -270 -12 -227 0 -304 9 -555 65 -71 16 -68 -5 8 -63 42 -31
75 -49 162 -88 116 -51 263 -73 495 -72 233 0 316 13 515 78 183 61 433 201
628 351 38 30 75 53 81 51 15 -5 14 -158 -2 -232 -40 -182 -95 -276 -257 -443
-49 -52 -102 -100 -117 -108 -16 -8 -28 -22 -28 -31 0 -14 11 -15 85 -10 47 3
112 14 146 23 39 11 63 14 70 7 13 -13 -31 -135 -83 -232 -151 -282 -388 -546
-653 -727 -134 -93 -382 -202 -545 -242 -152 -37 -362 -61 -535 -61 -151 0
-495 25 -580 43 -38 7 -86 17 -105 21 -44 8 -125 34 -167 52 -17 7 -34 13 -39
13 -28 0 -293 148 -377 211 -216 160 -402 399 -497 636 -49 124 -38 130 73 35
137 -118 224 -177 360 -247 189 -97 337 -142 587 -182 134 -21 648 -24 785 -4
370 52 704 194 988 418 66 53 217 216 217 235 0 6 -17 7 -42 3 -83 -13 -461
-17 -538 -6 -234 35 -375 78 -539 164 -180 94 -292 186 -395 327 -37 49 -66
92 -66 95 0 3 -10 22 -23 43 -34 55 -102 207 -130 292 -22 67 -34 112 -68 268
-15 68 -12 162 6 168 9 4 45 -19 92 -59 235 -195 379 -261 733 -334 125 -25
456 -25 560 1 150 37 234 73 283 122 35 34 23 48 -35 40 -108 -14 -343 -25
-443 -21 -244 12 -536 80 -578 137 -26 35 -68 351 -49 370 11 11 56 3 117 -23
63 -25 272 -89 345 -105 123 -26 462 -27 575 0 86 20 238 63 270 76 88 38 119
54 185 98 78 51 158 127 147 138 -5 5 -135 -32 -267 -76 -31 -11 -153 -35
-241 -50 -86 -13 -373 -13 -458 1 -243 39 -441 99 -566 172 -179 104 -325 251
-325 327 0 16 12 55 26 85 34 70 157 205 188 205 16 0 39 -20 75 -65z m11735
-1044 c6 -9 -5 -76 -31 -196 -21 -97 -106 -273 -188 -386 -234 -327 -559 -557
-925 -656 -72 -19 -266 -43 -357 -43 -39 0 -75 -5 -78 -10 -9 -15 44 -82 139
-175 191 -188 541 -369 831 -430 44 -9 98 -21 120 -26 88 -20 290 -39 412 -39
125 0 314 19 403 41 202 48 284 76 418 141 143 70 240 140 432 316 30 28 59
47 64 42 10 -10 -26 -125 -65 -204 -48 -96 -115 -184 -223 -291 -192 -191
-366 -294 -665 -395 -165 -55 -276 -70 -529 -70 -490 0 -865 97 -1197 312
-205 132 -436 356 -580 562 -130 187 -169 227 -146 150 5 -16 17 -54 26 -84 9
-30 28 -79 41 -108 13 -29 24 -57 24 -62 0 -23 83 -181 136 -261 152 -227 347
-417 553 -539 62 -36 352 -158 414 -174 16 -4 27 -12 24 -19 -5 -15 -223 -13
-307 2 -30 6 -95 18 -145 27 -181 32 -389 117 -516 211 -121 88 -285 284 -369
438 -18 33 -36 65 -40 70 -14 19 -86 210 -104 275 -27 100 -56 231 -76 340 -6
36 -18 97 -25 135 -54 276 -90 615 -67 629 6 3 52 -34 103 -84 186 -181 393
-287 664 -342 134 -27 446 -29 580 -4 118 22 247 57 287 77 10 5 23 9 29 9 26
0 250 117 343 179 109 72 254 204 320 291 24 30 77 107 119 170 135 203 137
205 151 181z m-10219 -2181 c8 -13 -12 -433 -30 -615 -26 -276 -86 -566 -145
-710 -5 -11 -18 -47 -29 -80 -51 -155 -180 -430 -262 -561 -148 -235 -412
-469 -724 -639 -114 -63 -396 -225 -455 -263 -245 -155 -439 -345 -573 -558
-100 -160 -146 -288 -196 -540 -10 -53 -26 -230 -37 -416 -5 -92 -8 -108 -23
-108 -31 0 -71 100 -96 240 -26 147 -13 428 26 590 25 106 42 170 66 245 70
223 89 268 166 398 61 104 37 105 -65 5 -110 -107 -156 -179 -248 -378 -8 -17
-51 -157 -75 -245 -26 -91 -33 -107 -52 -103 -29 5 -35 71 -23 243 27 397 118
644 340 918 64 80 232 238 325 307 58 43 174 110 225 129 19 8 49 20 65 27 17
7 100 36 185 64 343 114 548 219 751 387 102 84 227 235 302 365 40 69 142
275 167 338 12 30 27 65 32 77 6 12 8 29 4 39 -5 14 -20 4 -79 -56 -90 -91
-166 -150 -271 -210 -78 -44 -237 -114 -321 -141 -67 -22 -120 -81 -199 -224
-49 -88 -114 -171 -178 -230 -67 -60 -203 -134 -219 -118 -9 9 39 114 79 171
67 97 128 275 167 487 26 140 44 208 58 222 7 7 55 20 107 28 204 33 248 45
380 108 245 116 465 327 754 725 63 86 87 105 101 82z m8026 -217 c111 -134
189 -255 261 -403 33 -69 85 -177 116 -240 131 -272 281 -472 490 -652 223
-194 334 -259 912 -536 259 -123 378 -209 563 -402 155 -161 251 -316 317
-510 95 -280 103 -696 20 -1035 -21 -85 -41 -93 -53 -20 -4 28 -19 100 -33
160 -92 395 -234 657 -490 908 -82 81 -275 226 -369 277 -33 18 -64 36 -70 40
-12 10 -195 101 -250 125 -22 9 -53 23 -70 30 -16 7 -109 52 -205 98 -179 87
-313 169 -432 264 -89 70 -254 236 -314 315 -26 35 -51 65 -54 68 -31 29 -153
228 -208 340 -46 95 -57 122 -97 230 -15 41 -31 84 -35 95 -8 21 -30 87 -48
145 -12 40 -35 156 -54 275 -14 85 -18 477 -6 508 4 9 12 17 18 17 5 0 46 -44
91 -97z m-1706 -129 c136 -10 272 -60 356 -132 57 -49 182 -213 171 -224 -13
-13 -92 9 -207 58 -247 105 -364 124 -762 124 -250 0 -261 4 -174 59 118 76
361 138 491 125 19 -2 75 -6 125 -10z m-4250 -36 c108 -39 293 -129 300 -146
10 -26 -7 -30 -90 -21 -145 15 -593 16 -660 0 -120 -27 -155 -39 -343 -121
-79 -34 -146 -60 -149 -56 -36 36 162 230 311 305 112 56 202 71 396 67 147
-2 173 -5 235 -28z m-222 -305 c8 -10 29 -47 46 -83 55 -120 115 -164 227
-164 65 -1 75 2 125 35 30 20 80 62 113 93 32 31 62 56 67 56 23 0 121 -31
143 -45 58 -38 36 -124 -54 -211 -48 -47 -77 -67 -112 -78 -39 -12 -15 -26 42
-26 71 0 166 25 287 75 122 51 123 51 161 16 17 -16 32 -34 32 -40 0 -12 -128
-90 -198 -119 -132 -56 -339 -104 -527 -122 -319 -30 -577 12 -739 121 -81 53
-176 149 -176 175 0 10 21 37 46 61 64 59 87 58 159 -11 33 -32 85 -69 129
-90 99 -48 201 -50 112 -2 -85 45 -166 152 -166 219 0 54 57 105 155 138 66
23 108 23 128 2z m4471 -28 c62 -26 97 -98 81 -162 -10 -41 -104 -127 -174
-160 -33 -15 -61 -31 -61 -35 0 -8 89 -13 150 -9 35 2 167 41 225 65 75 32 95
37 126 34 54 -5 49 -30 -23 -102 -48 -48 -86 -75 -153 -106 -48 -24 -104 -47
-124 -52 -183 -46 -206 -49 -406 -50 -201 -1 -229 2 -405 44 -193 46 -431 161
-417 201 5 16 132 15 275 -2 147 -18 152 -12 78 72 -71 81 -74 109 -16 161 48
43 100 66 149 66 30 0 47 -10 101 -61 120 -111 197 -137 282 -96 34 16 158
142 158 160 0 4 8 19 17 33 15 23 21 25 60 19 24 -3 59 -13 77 -20z m-6523
-1421 c10 -108 -34 -463 -81 -649 -57 -224 -157 -472 -249 -620 -110 -175
-297 -359 -606 -595 -376 -287 -545 -484 -678 -790 -38 -87 -94 -297 -117
-440 -4 -25 -12 -67 -18 -95 -17 -82 -31 -185 -36 -266 -6 -85 -20 -133 -38
-127 -17 6 -80 131 -102 203 -10 33 -22 71 -26 85 -9 29 -34 125 -50 190 -64
271 -52 530 41 820 29 92 99 258 126 302 13 21 23 40 23 44 0 16 137 212 204
291 114 136 296 292 576 492 269 193 387 305 592 564 58 73 216 317 271 418
19 35 51 96 72 134 66 124 87 132 96 39z m8532 -39 c19 -38 65 -132 101 -208
67 -137 143 -259 220 -351 107 -129 307 -275 583 -427 193 -107 311 -179 399
-245 79 -58 241 -214 295 -283 138 -176 277 -444 329 -636 5 -16 16 -57 25
-90 28 -103 45 -222 56 -384 20 -317 -23 -549 -151 -805 -78 -157 -84 -153
-91 64 -9 241 -45 506 -91 660 -18 59 -39 124 -48 145 -151 357 -320 552 -745
855 -251 179 -350 264 -461 395 -52 62 -163 235 -201 315 -88 185 -135 312
-183 490 -46 172 -55 213 -74 330 -19 115 -29 237 -21 251 10 15 19 4 58 -76z
m-7701 -1077 c70 -80 145 -176 198 -253 33 -48 160 -264 160 -272 0 -2 18 -33
41 -68 60 -95 67 -90 80 57 5 56 12 105 17 110 19 19 54 -52 67 -137 4 -22 11
-53 16 -70 16 -55 30 -296 40 -685 14 -582 29 -801 69 -990 16 -74 56 -192 80
-232 10 -18 39 -96 65 -173 25 -77 50 -148 55 -157 6 -10 10 -22 10 -28 0 -19
83 -185 138 -275 69 -113 138 -201 204 -259 102 -93 106 -52 13 150 -15 32
-39 84 -53 114 -134 292 -179 478 -169 705 3 66 10 136 16 155 5 19 17 64 27
100 9 36 25 90 36 120 11 30 22 64 25 75 4 11 43 92 88 180 277 540 521 898
802 1173 91 89 113 93 137 25 46 -128 108 -213 194 -266 20 -13 84 -40 142
-61 57 -20 123 -48 146 -61 56 -33 352 -343 385 -403 14 -26 33 -69 44 -97 32
-88 102 -229 126 -255 32 -35 98 -83 132 -98 74 -32 166 2 232 86 39 49 70
106 138 252 43 92 104 167 241 301 182 177 212 201 349 293 62 41 135 94 160
116 43 38 147 170 147 187 0 5 9 19 19 32 l19 25 69 -56 c79 -65 354 -344 463
-469 146 -168 395 -501 497 -665 93 -149 200 -422 224 -567 26 -167 -38 -400
-208 -757 -137 -286 -156 -370 -73 -313 30 20 27 17 116 134 106 139 178 258
289 474 185 361 203 460 186 1030 -16 530 -14 1003 4 1123 38 247 92 351 283
540 82 81 189 165 205 159 7 -2 11 -168 12 -488 1 -266 7 -554 14 -639 6 -85
16 -256 21 -380 5 -124 15 -353 21 -510 15 -327 10 -365 -62 -516 -64 -135
-410 -633 -709 -1019 -298 -387 -451 -586 -530 -695 -46 -63 -86 -117 -89
-120 -3 -3 -39 -50 -80 -105 -248 -334 -460 -567 -577 -637 -59 -34 -147 -72
-209 -89 -127 -34 -191 -49 -234 -55 -59 -8 -64 -1 -80 96 -6 36 -15 81 -20
100 -5 19 -17 69 -26 110 -20 94 -27 121 -66 250 -94 318 -147 443 -285 672
-58 95 -151 160 -148 103 1 -11 21 -72 44 -135 65 -176 122 -341 131 -380 4
-19 15 -62 23 -95 17 -62 45 -203 65 -315 29 -163 38 -428 21 -585 -24 -224
-94 -509 -161 -653 -16 -35 -29 -66 -29 -69 0 -12 -135 -281 -165 -328 -17
-27 -58 -104 -90 -170 -63 -130 -100 -185 -121 -185 -14 0 -53 58 -113 165
-19 33 -43 76 -54 95 -59 105 -154 305 -207 435 -18 44 -38 94 -45 110 -47
114 -82 239 -126 455 -38 184 -37 592 2 790 46 239 93 404 149 535 57 132 107
241 131 288 19 37 18 57 -2 57 -37 0 -187 -187 -269 -335 -58 -104 -90 -175
-130 -285 -67 -184 -93 -302 -115 -525 -9 -93 -19 -176 -21 -182 -8 -30 -128
-11 -283 43 -183 65 -292 150 -454 354 -152 192 -155 196 -263 324 -115 138
-322 396 -406 506 -121 157 -298 383 -428 546 -112 139 -307 388 -395 505
-206 271 -296 404 -327 484 -30 76 -47 397 -68 1260 -11 428 -28 841 -40 968
-11 111 -13 270 -4 280 12 12 41 -12 106 -85z"/>
<path d="M10064 17954 c-176 -106 -370 -282 -498 -452 -72 -95 -121 -180 -173
-302 -71 -164 -93 -406 -54 -595 36 -174 119 -382 194 -488 26 -36 47 -68 47
-71 0 -3 -12 -6 -26 -6 -23 0 -78 26 -139 66 -63 41 -30 -53 78 -226 54 -85
235 -439 250 -486 3 -10 13 -39 22 -64 10 -25 33 -97 51 -160 55 -184 60 -192
101 -147 51 55 133 305 172 523 14 74 14 315 2 381 -9 45 -28 140 -51 261 -37
192 17 449 145 697 89 174 207 333 418 567 118 130 135 154 118 171 -9 9 -30
2 -85 -26 -162 -83 -346 -245 -487 -427 -60 -79 -149 -212 -149 -225 0 -3 -10
-22 -23 -43 -63 -101 -127 -292 -171 -512 -22 -109 -35 -134 -68 -138 -22 -3
-33 5 -57 39 -60 81 -130 251 -156 374 -18 82 -20 261 -4 337 26 128 64 226
131 336 21 34 38 65 38 68 0 24 255 341 325 404 52 47 145 161 140 171 -10 16
-29 10 -91 -27z"/>
<path d="M6760 17473 c-60 -10 -125 -46 -199 -111 -36 -32 -35 -58 2 -46 64
20 288 136 284 147 -4 13 -45 18 -87 10z"/>
<path d="M12125 13720 c-208 -17 -405 -49 -402 -65 1 -6 145 -10 407 -10 407
0 490 -6 630 -44 71 -19 90 -21 90 -11 0 26 -150 91 -270 118 -61 14 -345 22
-455 12z"/>
<path d="M7380 13709 c-159 -21 -302 -68 -339 -113 -20 -23 -6 -32 32 -19 109
37 421 85 616 96 47 2 64 19 34 32 -28 12 -261 14 -343 4z"/>
<path d="M10668 13585 c-3 -3 -106 -15 -229 -26 -192 -17 -284 -20 -653 -17
-330 2 -430 0 -433 -9 -4 -12 5 -15 97 -33 156 -31 430 -60 565 -60 235 0 647
75 677 123 11 18 -9 37 -24 22z"/>
<path d="M12100 13316 c-84 -14 -170 -37 -170 -47 0 -4 116 -9 258 -12 244 -5
304 -11 433 -43 109 -28 130 -12 44 35 -140 75 -350 100 -565 67z"/>
<path d="M7405 13313 c-115 -9 -297 -69 -344 -115 -34 -33 -30 -59 7 -39 11 6
37 15 58 20 22 5 66 17 99 26 119 33 164 38 424 44 167 4 266 10 268 16 8 24
-366 58 -512 48z"/>
<path d="M8870 13112 c0 -11 88 -49 166 -72 38 -11 83 -24 99 -29 51 -15 174
-39 300 -57 97 -15 185 -18 460 -18 354 1 441 8 670 59 39 9 81 18 95 21 43
10 175 79 170 89 -9 18 -196 7 -445 -26 -56 -8 -243 -12 -500 -13 -403 0 -549
7 -850 44 -95 12 -165 13 -165 2z"/>
<path d="M7415 12940 c-154 -12 -254 -44 -351 -110 -51 -36 -48 -56 6 -40 188
55 451 67 671 30 114 -18 275 -52 334 -69 17 -5 57 -17 90 -26 33 -9 92 -27
130 -40 140 -46 432 -136 525 -162 30 -8 69 -19 85 -24 193 -54 328 -84 535
-119 300 -50 736 -47 1065 6 325 52 754 158 1095 271 74 25 149 49 165 53 17
5 68 20 115 35 178 55 374 87 550 89 99 1 153 -4 313 -29 57 -9 18 37 -66 77
-93 46 -169 59 -328 59 -81 0 -153 -3 -160 -6 -8 -2 -43 -9 -79 -14 -87 -13
-197 -39 -365 -86 -33 -10 -73 -21 -90 -25 -16 -5 -55 -16 -85 -25 -30 -9 -68
-20 -85 -25 -16 -5 -55 -16 -85 -25 -135 -40 -217 -62 -295 -81 -519 -124
-1044 -170 -1485 -129 -198 19 -315 32 -337 39 -10 3 -47 10 -83 15 -149 23
-514 108 -666 157 -44 13 -117 36 -164 50 -47 15 -96 31 -110 36 -33 11 -213
58 -265 68 -22 4 -62 12 -90 18 -158 33 -341 45 -490 32z"/>
<path d="M10610 7081 c-7 -14 -6 -35 4 -73 41 -156 94 -267 162 -335 53 -53
80 -65 90 -40 14 38 -200 466 -233 467 -7 0 -17 -9 -23 -19z"/>
<path d="M10992 7068 c-7 -7 -12 -20 -12 -30 0 -64 127 -336 215 -460 54 -76
143 -158 171 -158 35 0 -4 145 -71 264 -116 209 -253 396 -288 396 -1 0 -8 -5
-15 -12z"/>
<path d="M8924 7031 c-135 -98 -301 -338 -360 -519 -32 -99 -24 -110 51 -71
75 39 141 120 253 306 56 93 128 273 119 297 -9 22 -18 20 -63 -13z"/>
<path d="M9355 7019 c-56 -52 -118 -146 -174 -264 -24 -49 -47 -98 -52 -107
-39 -76 34 -59 114 27 27 30 133 233 160 310 8 22 18 48 22 58 13 31 -23 19
-70 -24z"/>
<path d="M8402 6784 c-78 -81 -127 -136 -196 -224 -33 -41 -85 -106 -116 -145
-107 -134 -140 -197 -185 -350 -14 -45 -18 -96 -19 -200 0 -158 11 -208 75
-332 74 -143 253 -364 305 -377 45 -12 47 7 8 75 -131 232 -174 359 -174 520
0 70 4 98 20 129 32 63 45 67 235 73 191 6 322 29 535 92 221 65 256 73 360
85 104 13 207 10 390 -11 47 -5 178 -12 291 -15 216 -6 242 -4 479 46 52 11
124 20 160 20 73 0 219 -26 360 -65 139 -38 149 -41 215 -60 188 -53 259 -64
484 -74 114 -6 198 -14 204 -20 6 -6 18 -11 27 -11 28 0 70 -49 71 -83 5 -129
-2 -154 -126 -412 -34 -71 -68 -148 -75 -170 -7 -22 -17 -50 -23 -63 -8 -16
-7 -26 1 -34 13 -13 77 48 168 162 185 233 264 382 299 555 29 146 13 257 -56
401 -67 139 -103 150 -115 35 -7 -77 -21 -99 -52 -82 -36 19 -213 214 -278
305 -159 227 -195 269 -209 246 -12 -19 43 -176 112 -320 35 -74 48 -109 73
-184 10 -32 10 -40 -1 -48 -18 -12 -164 -1 -254 18 -167 36 -181 40 -385 114
-63 23 -126 46 -140 50 -14 5 -43 16 -65 24 -222 82 -321 114 -400 129 -38 7
-118 -24 -207 -80 -172 -108 -246 -120 -383 -60 -44 19 -116 52 -160 73 -142
68 -245 58 -468 -45 -49 -23 -94 -41 -101 -41 -6 0 -16 -4 -21 -8 -17 -15
-167 -74 -335 -132 -24 -9 -101 -27 -208 -49 -81 -17 -257 -14 -272 4 -16 19
-10 36 70 182 76 138 173 365 168 390 -6 33 -31 23 -86 -33z"/>
<path d="M11385 5747 c-11 -7 -47 -21 -80 -31 -33 -9 -69 -21 -80 -25 -35 -15
-137 -40 -211 -52 -49 -8 -113 -9 -200 -4 -164 11 -1181 11 -1547 0 -303 -8
-368 -3 -511 41 -43 14 -101 36 -128 49 -28 14 -55 22 -59 19 -25 -15 170
-198 261 -245 135 -70 385 -129 552 -129 55 0 78 -7 78 -25 0 -15 -85 -79
-223 -168 -172 -112 -295 -223 -363 -328 -66 -101 -60 -116 32 -93 77 19 98
28 229 89 224 105 357 144 573 165 209 20 573 6 732 -30 70 -16 215 -57 245
-70 95 -41 159 -72 194 -94 23 -15 77 -44 120 -66 73 -37 86 -40 160 -40 61 0
83 4 87 14 13 33 -122 193 -236 280 -84 65 -220 146 -374 222 -76 38 -141 75
-144 83 -11 30 11 36 353 102 183 35 190 37 248 63 90 40 192 111 268 186 65
65 78 89 53 97 -5 2 -18 -3 -29 -10z"/>
<path d="M10074 3519 c-4 -7 -11 -96 -15 -198 -5 -102 -13 -215 -18 -251 -5
-36 -17 -119 -26 -185 -9 -66 -20 -142 -25 -170 -25 -134 -35 -257 -35 -437 0
-150 3 -200 13 -210 11 -11 16 -10 28 6 20 28 97 232 134 356 18 58 35 116 40
130 11 31 35 152 50 241 29 185 -10 467 -92 657 -30 71 -40 83 -54 61z"/>
</g>
</svg>
